<svg width="25" height="25" viewBox="0 0 25 25" fill="none" xmlns="http://www.w3.org/2000/svg">
<path d="M4.76558 4.76565C5.0586 4.47272 5.45595 4.30817 5.87027 4.30817C6.28459 4.30817 6.68195 4.47272 6.97496 4.76565L12.5 10.2906L18.025 4.76565C18.3196 4.48102 18.7143 4.32353 19.124 4.32709C19.5337 4.33065 19.9256 4.49498 20.2153 4.78468C20.505 5.07438 20.6693 5.46627 20.6729 5.87596C20.6764 6.28564 20.519 6.68033 20.2343 6.97502L14.7093 12.5L20.2343 18.025C20.519 18.3197 20.6764 18.7144 20.6729 19.1241C20.6693 19.5338 20.505 19.9257 20.2153 20.2154C19.9256 20.5051 19.5337 20.6694 19.124 20.6729C18.7143 20.6765 18.3196 20.519 18.025 20.2344L12.5 14.7094L6.97496 20.2344C6.68027 20.519 6.28558 20.6765 5.87589 20.6729C5.46621 20.6694 5.07432 20.5051 4.78462 20.2154C4.49492 19.9257 4.33059 19.5338 4.32703 19.1241C4.32347 18.7144 4.48096 18.3197 4.76558 18.025L10.2906 12.5L4.76558 6.97502C4.47266 6.68201 4.30811 6.28465 4.30811 5.87033C4.30811 5.45601 4.47266 5.05866 4.76558 4.76565Z" fill="#999999"/>
</svg>
